<?xml version="1.0" encoding="utf-8"?>
<!-- Generator: Adobe Illustrator 16.0.0, SVG Export Plug-In . SVG Version: 6.00 Build 0)  -->
<!DOCTYPE svg PUBLIC "-//W3C//DTD SVG 1.1//EN" "http://www.w3.org/Graphics/SVG/1.1/DTD/svg11.dtd">
<svg version="1.1" id="Layer_1" xmlns="http://www.w3.org/2000/svg" xmlns:xlink="http://www.w3.org/1999/xlink" x="0px" y="0px"
	 width="1455px" height="275px" viewBox="0 0 1455 275" enable-background="new 0 0 1455 275" xml:space="preserve">
<g>
	<path fill="#2F3E44" d="M277.915,175.563h47.804v30.113c0,15.106,0,30.174,23.151,30.174c23.539,0,23.539-15.445,23.539-38.578
		c0-18.373-3.664-26.1-16.194-34.562l-45.544-30.492c-24.281-16.543-30.893-34.57-30.893-61.048
		c0-20.232,1.827-39.711,18.712-53.669c9.599-8.104,27.229-15.431,52.246-15.431c27.935,0,66.159,11.392,66.159,55.891v25.705
		h-47.441V64.915c0-12.474,0-26.459-20.939-26.459c-12.895,0-22.021,4.775-22.021,25.75c0,21.675,4.76,26.459,15.049,33.443
		l47.01,31.958c9.232,6.645,19.137,15.819,24.672,25.381c6.987,11.773,6.987,19.817,6.987,40.799c0,23.169,0,37.488-8.489,51.076
		C397.417,270.048,367.64,272.6,350.01,272.6c-40.815,0-72.095-15.404-72.095-59.147V175.563z"/>
	<polygon fill="#2F3E44" points="472.523,7.203 598.254,7.203 598.254,46.905 520.285,46.905 520.285,107.944 593.476,107.944 
		593.476,147.271 520.285,147.271 520.285,227.064 601.521,227.064 601.521,267.076 472.523,267.076 	"/>
	<rect x="653.206" y="7.4" fill="#2F3E44" width="47.392" height="259.5"/>
	<path fill="#2F3E44" d="M751.356,175.563h47.786v30.113c0,15.106,0,30.174,23.169,30.174c23.529,0,23.529-15.445,23.529-38.578
		c0-18.373-3.678-26.1-16.215-34.562l-45.551-30.492c-24.28-16.543-30.874-34.57-30.874-61.048c0-20.232,1.85-39.711,18.722-53.669
		c9.604-8.104,27.22-15.431,52.216-15.431c27.963,0,66.171,11.392,66.171,55.891v25.705h-47.383V64.915
		c0-12.474,0-26.459-20.997-26.459c-12.84,0-22.017,4.775-22.017,25.75c0,21.675,4.747,26.459,15.061,33.443l47.031,31.958
		c9.196,6.645,19.131,15.819,24.645,25.381c6.969,11.773,6.969,19.817,6.969,40.799c0,23.169,0,37.488-8.48,51.076
		c-14.297,23.185-44.092,25.736-61.714,25.736c-40.824,0-72.067-15.404-72.067-59.147V175.563z"/>
	<polygon fill="#2F3E44" points="945.955,7.585 1023.501,7.585 1054.399,189.161 1084.909,7.585 1161.715,7.585 1161.715,267.085 
		1114.341,267.085 1118.716,42.137 1076.816,267.085 1031.969,267.085 989.318,42.137 993.009,267.085 945.955,267.085 	"/>
	<rect x="1213.3" y="7.576" fill="#2F3E44" width="47.417" height="259.5"/>
	<path fill="#2F3E44" d="M1406.063,102.434V69.312c0-19.446-3.293-30.475-24.269-30.475c-20.913,0-22.052,16.543-22.052,28.314
		v138.941c0,15.452,2.575,29.397,23.867,29.397c22.453,0,22.453-16.189,22.453-32v-33.818h47.404v36.785
		c0,20.933,0,66.151-70.573,66.151c-13.607,0-35.247-2.55-50.345-12.477c-20.58-13.631-20.58-33.809-20.58-48.173V70.838
		c0-20.973,1.108-35.328,12.85-48.156c18.732-20.239,48.149-20.612,58.075-20.612c70.573,0,70.573,41.899,70.573,60.26v40.103
		H1406.063z"/>
	<path fill="#2F3E44" d="M85.122,89.763h83.604c0-46.05-37.406-83.335-83.604-83.335c-46.178,0-83.59,37.285-83.59,83.335
		c0,46.008,37.412,83.329,83.59,83.329V89.763z"/>
	<path fill="#E84E1B" d="M101.31,189.643H17.693c0,45.979,37.439,83.287,83.617,83.287c46.138,0,83.59-37.309,83.59-83.287
		c0-46.068-37.452-83.338-83.59-83.338V189.643z"/>
</g>
</svg>
